<svg width="210mm" height="297mm" viewBox="0 0 210 297" xmlns="http://www.w3.org/2000/svg"><path style="fill:#000;fill-rule:evenodd;stroke:#000;stroke-width:0;stroke-miterlimit:4;stroke-dasharray:none" d="M103.807 111.394a26.635 25.43 0 0 0-24.218 14.883 26.635 25.43 0 0 0-.048.124l.214.382-.454.236a26.635 25.43 0 0 0 2.058 23.36l1.197.498-.323.71a26.635 25.43 0 0 0 10.55 8.378 26.635 25.43 0 0 0 28.967-4.33l.193-1.288 1.04.145a26.635 25.43 0 0 0 5.078-7.116 26.635 25.43 0 0 0 .792-19.233l-1.108-.466.482-1.045a26.635 25.43 0 0 0-13.352-12.944 26.635 25.43 0 0 0-11.066-2.293zm.008 2.03a24.506 23.397 0 0 1 10.179 2.11 24.506 23.397 0 0 1 .784.355l.998-.276.118.847a24.506 23.397 0 0 1 12.078 16.375l-1.363.505-2.808-.525-1.431 1.261-1.377-.21-.385.368h.495l1.156.263 1.487-1.051-.11.998.385.684.11-.684-.055-.946 2.422.42 1.638-.025a24.506 23.397 0 0 1-2.01 12.636 24.506 23.397 0 0 1-9.021 9.895l-.496 1.078-.833-.349a24.506 23.397 0 0 1-7.515 2.635l.118-1.051-.194-.789.166-.446-.11-.368-.14.368-.357-.316-.248-.893v1.025l.44.394.111.999-.42 1.209a24.506 23.397 0 0 1-13.963-1.807 24.506 23.397 0 0 1-14.232-19.745l4.246-.933 1.074-.848 1.177 1.071.825.848.338-.237.303-.735-.579.525-2.202-2.168-1.466.96-3.812-.146a24.506 23.397 0 0 1 2.188-9.58 24.506 23.397 0 0 1 3.014-4.718l.014-.289.226.007a24.506 23.397 0 0 1 14.88-8.318l1.507 1.478.99 1.038-.268 1.163-.722 1.354-1.212 2.45-1.032 2.116.723 1.124-.11-1.268 1.12-2.169s1.007-1.737 1.336-2.575c.33-.838 1.129 0 1.129 0l-.166 2.194-1.19.763.247.525 1.349.907-.97-1.11.88-.77.194-2.575-.488-2.444-.943-.644s-.78-.62-1.246-1.728a24.506 23.397 0 0 1 3.028-.21z"/><path style="fill:#000;fill-rule:evenodd;stroke:#000;stroke-width:0;stroke-miterlimit:4;stroke-dasharray:none;stroke-opacity:1" d="M103.924 134.168a7.45 7.112 0 0 0-4.508 1.479l-.048.63-.66-.046a7.45 7.112 0 0 0-2.23 5.047 7.45 7.112 0 0 0 7.446 7.116 7.45 7.112 0 0 0 .798-.04l.18-.393.627.262a7.45 7.112 0 0 0 5.842-6.945 7.45 7.112 0 0 0-3.461-6.005l-1.184.493-.578-1.269a7.45 7.112 0 0 0-2.223-.328zm-.365 2.05.64 2.464a2.979 2.992 0 0 0-.24-.013 2.979 2.992 0 0 0-.71.1zm2.044.237-.337 2.523a2.979 2.992 0 0 0-.901-.282zm-4.032.243 1.541 2.096a2.979 2.992 0 0 0-.853.42zm5.842.677-1.273 2.247a2.979 2.992 0 0 0-.736-.571zm-7.515.46 2.271 1.446a2.979 2.992 0 0 0-.66.69zm8.857 1.031-2.044 1.656a2.979 2.992 0 0 0-.474-.788zm-9.992.605 2.69.578a2.979 2.992 0 0 0-.371.861zm8.004 1.19 2.677.053-2.512.834a2.979 2.992 0 0 0-.166-.887zm-5.699.335a2.979 2.992 0 0 0-.09.67 2.979 2.992 0 0 0 .028.263l-2.67-.54zm5.87.71 2.444.965-2.595-.085a2.979 2.992 0 0 0 .152-.88zm-5.932.334a2.979 2.992 0 0 0 .248.88l-2.601.408zm5.712.736 1.865 1.709-2.312-.947a2.979 2.992 0 0 0 .447-.762zm-5.381.296a2.979 2.992 0 0 0 .536.716l-2.188 1.235zm4.762.664 1.06 2.155-1.741-1.623a2.979 2.992 0 0 0 .681-.532zm-4.04.223a2.979 2.992 0 0 0 .75.46l-1.52 1.833zm3.07.454.166 2.306-.991-2.083a2.979 2.992 0 0 0 .826-.224zm-2.024.117a2.979 2.992 0 0 0 .847.125l-.709 2.188z"/><g aria-label="ILLUMI" style="font-weight:700;font-size:6.95595px;line-height:1.25;font-family:Norse;-inkscape-font-specification:'Norse, Bold';stroke-width:.0206692"><path d="m45.383 38.715.277.265.15.157.985.848.19.164.144.014.05.154.406.478.214-.238.1-.106.127-.296-.19-.173-.11-.076-.088-.057-1.46-1.258-.087.026-.07-.142-.14-.103-.224-.156-.255-.248-.677-.61-.11-.14-.361-.358-.316.325-.198.261.286.2.068-.024.058.124 1.068.892zM49.437 38.352l-.432.305-.112-.168-.293-.39.002-.009-.284-.388-.247-.345-.12-.029-.001-.14-.19-.284-.39-.66-.414-.66-.108-.212-.245-.38-.234-.037-.16.174-.3.2.46.605.112-.033-.01.148 1.27 1.88.597.981.148.11-.005.154.274.386.268-.162.224-.216h.075l.249-.166.077-.06.459-.264.013-.168-.22-.38-.098-.11-.264.193zM51.774 37.46l-.505.158-.055-.194-.159-.461.005-.009-.15-.456-.13-.405-.104-.064.041-.135-.092-.328-.168-.747-.192-.756-.037-.235-.116-.437-.211-.107-.206.116-.348.098.253.717.116.003-.055.138.63 2.179.265 1.118.108.15-.053.145.142.452.305-.072.279-.137.072.023.287-.08.092-.034.518-.11.065-.156-.092-.43-.06-.134-.311.102zM53.231 36.655l.062.083-.11.115-.052.324-.028.346.38.402.435.05.233-.096.553-.217.009.05.018.379.683-.044-.044-.55.04-.813.166-1.536-.014-.204-.062-.076.08-.11.017-.097.052-.38.093-.444-.062-.083.08-.034.059-.372-.008-.343-.318-.039-.346-.027-.063.49-.06.874-.057.575-.042.849-.109.877-.072.447-.592.185-.236.06-.055-.012-.07-.07.003-.104.033-.815.13-.812.037-.52.019-.257.016-.236.075-.258-.054-.16.005-.125.094-.242.043-.22.069-.615-.622-.076-.115.248-.07 1.118.013.218-.07.14-.055.49-.027.76zM59.31 34.957l.065-.703-.237-.105-.266-.139-.198.336-.03.062.005.11-.012.034-.099.053-.16.302-.161.3-.334.53.055.124-.157.042-1.038 1.608-.094.154-.073.118-.034.175-.212.172-.091.255.564.33.157-.254.523-.879.476-.867.104-.075.503-.818-.003-.01.004-.005.256-.39-.025.32-.017.12-.005.062-.03.366.157.104.239.09.214-.162.165-.095.036-.06.18-.068.112-.062-.11.234-.836 1.266-.144.287.028.1-.136.063-.39.634-.282.365-.14.266.088.176.507.279.194-.395.105-.197.158-.352.26-.355 1.126-1.937-.009-.12.155-.092.581-.851-.116-.17-.258-.231-.625.326-.014.13-.107-.026-.401.228-.196.092-.002-.01zM61.41 38.614l-.312.222-.181.118-1.017.812-.196.156-.04.139-.16.021-.545.31.194.255.085.118.267.179.206-.155.095-.094.072-.076 1.506-1.202-.01-.09.154-.042.127-.12.195-.19.29-.205.725-.552.158-.082.418-.29-.26-.37-.22-.242-.25.244.012.07-.133.035-1.074.884z" style="font-size:6.95595px" transform="matrix(3.903 0 0 3.72644 -104.401 -31.557)"/></g><g style="font-size:6.95148px;line-height:1.25;stroke-width:.173787"><path d="m51.442 57.898.097-.2.619-1.392.031-.24.177-.238.807-1.51.219-.419-.236-.168-.366-.17-.242.501.02.118-.156.164-.26.538-.043-.438-.038-.049-.036-.326-.188-1.048-.56-.102-.158.326-.29.663-.147.368-.655 1.29-.004.152-.138.158-.467.87-.052.106-.008.066-.286.48.245.18.375.166.206-.395.024-.097.32-.647.06-.265.14-.21.703-1.421-.036-.118v-.015l.196-.183.164-.338.053.304.084.48.076.307.02.18.043.137.019.217-.309.654-.039.128-.034.022-.296.598-.282.597-.242.485.207.116.347.16.184-.173zM53.698 57.943l-.003.236.05.056-.07.053-.022.196-.13.87.098.09.087.023.54-.033v-.309l-.073-.134.055-.043.041-.441-.007-.67.024-.094.094-1.706-.065-.081.078-.11.05-1.085-.01-.074-.006-.059.067-.234-.1-.083-.56-.115-.176.407-.133.267-.117.257.049.12-.158.11-.434.85-.031.122-.077.13-.053.123-.347.794-.028.136-.093.055-.177.407-.393.775.198.209.407.147.19-.432.001-.2.08-.059.197-.459.148-.02.068-.01.479.008.158-.06.007.002.098.01zm-.223-1.701-.006-.116.076-.017.346-.786-.082.74-.004.127-.064.357-.052.762-.2-.001-.473.022.02-.046.192-.416-.008.005zM54.947 58.412l.065.08-.104.12-.038.325-.011.347.397.383.437.03.229-.106.542-.243.011.049.036.378.679-.076-.069-.546.001-.815.095-1.54-.024-.203-.065-.073.075-.115.012-.097.034-.38.073-.45-.066-.08.079-.037.04-.374-.024-.342-.318-.024-.348-.011-.04.492-.018.876-.03.576-.003.85-.067.88-.052.45-.582.213-.233.071-.056-.01-.073-.066-.001-.105-.006-.815.092-.816.013-.522.007-.257.005-.236.063-.261-.062-.157v-.125l.083-.246.032-.221.04-.618-.624-.047-.104.252-.017 1.12.023.217-.063.143-.033.493.009.759zM58.803 56.653l.084.571.04.08.02.052.106 1.094-.002.043-.303-.478-.108.028-.036-.212-.496-.614-.151-.183.07-.15.119-.324.209-.477.424-.808-.02-.096.213-.239.123-.29-.202-.141-.083-.045-.282-.116-.264.491.024.074-.305.49-.044.196-.416.87-.098.265-.027.053-.095.083.055.511.399.459.245.254.199.282.008.006.42.56.29.333.104.154.114.167.645-.157-.048-.309-.075-.088.056-.05-.196-1.713-.026-.038.017-.5-.11-.196z" style="font-weight:700;font-size:6.95148px;font-family:Norse;-inkscape-font-specification:'Norse, Bold'" transform="matrix(3.89766 .29328 -.31501 3.97527 -103.363 -69.977)"/><path d="m60.251 58.16.151.41.126.069-.064.16.127.449.429-.099.266-.103-.075-.246-.118-.29-.156-.337v-.022l-.348-1.159.442-.388.006-.002.355-.213.032.12.05.086.325 1.02.134.073-.046.082.2.754.162.202.382-.127.24-.094-.134-.359-.1-.15-.294-.84-.406-1.176-.057-.127-.118-.29-.173-.632-.123-.171.037-.108-.076-.253.002.007-.086-.39-.09-.336-.38.112-.246.075-.035.224.12.253.21.589.22.594.033.187-.062.057-.106.1-.23.21-.036.092-.119-.005-.244.191-.01.011-.273-.62-.118-.444-.092-.036.037-.151-.1-.414-.132-.483-.591.116-.124.158.182.393.025.139.164.429.182.393.188.656.294.73z" style="font-weight:700;font-size:6.95148px;font-family:Norse;-inkscape-font-specification:'Norse, Bold'" transform="matrix(3.89766 .29328 -.31501 3.97527 -103.363 -69.977)"/><path d="m62.263 53.067-.27.173a4.19 4.19 0 0 1-.259.135c-.049.027-.08.1-.116.12l-.143.015-.607.295.257.51.114.032.364-.217a.482.482 0 0 0 .087-.072l.014-.047.144-.056.174.23.19.402.195.266.655 1.258.443.875.089.031.12.434.259.468.35-.129.153-.124.123-.195-.288-.405-.631-1.145-.137-.075.003-.01-.147-.395-.265-.465-.057-.103c-.023-.043-.06-.094-.087-.143a3.444 3.444 0 0 1-.14-.24l-.237-.457-.098-.12-.104-.276.188-.105.19-.088.07-.016.274-.15-.14-.297-.177-.235z" style="font-weight:700;font-size:6.95148px;font-family:Norse;-inkscape-font-specification:'Norse, Bold'" transform="matrix(3.89766 .29328 -.31501 3.97527 -103.363 -69.977)"/><path d="m66.893 56.028.07-.234-.32-.323-.18-.238-.096-.075-.29-.409-.11-.002-.07-.21-.131-.154-.031-.072-.132-.154-.193-.565-.283-.789-.11-.304-.052-.233-.023-.107-.099-.001.082-.154-.16-.513-.264.015-.145.053-.3.125.163.305.06.21.203.443.062.244.174.386.176.42v.045l-.216-.148-.13-.04-.018-.056-.2-.16-.272-.13-.44-.317-.147-.095-.073-.093-.343-.206-.145.186-.225.331.128.183.303.123.138-.04.106.2.292.177.223.124-.004-.006.641.369.379.24.263.218.175.242.582.683.11.028.04.182.174.296.236.319z" style="font-weight:700;font-size:6.95148px;font-family:Norse;-inkscape-font-specification:'Norse, Bold'" transform="matrix(3.89766 .29328 -.31501 3.97527 -103.363 -69.977)"/></g><path style="fill:#000;fill-rule:evenodd;stroke:#fff;stroke-width:0" d="m70.815 134.747-2.788 1.61.07 3.107.853.447.427-.11.11.394 1.46.769 2.787-1.61-.07-3.108-1.06-.559-.619.21-.248-.663zM137.027 134.589l-.736.328-.187.401-.365-.152-1.659.736-.282 3.101 2.67 1.78 1.04-.466.468-1.018.936.388.502-.224.282-3.095z"/><g aria-label="1993" style="font-weight:700;font-size:2.66667px;line-height:1.25;font-family:Norse;-inkscape-font-specification:'Norse, Bold'"><path d="m58.92 137.205.179.153-.168.14-.05.549.01.42c.01.358.04.677.05 1.034l-.129 2.526v.702h.653l.366-.102.04-.51-.02-.281-.168-.14.119-.115-.1-3.177.09-3.572.04-1.161-.664-.37-.128.127-.396.51-.08.37-.158-.089-.455.498-.227.178-.218.256.287.625.237.42.604-.752.267-.204-.02 1.556zM62.404 137.562l-.317-.306-.267-.294-.02-.102-.396-.497.1-.217.118-.306.237-.307.446-.829.089.115.504.778.129-.025-.03.204.248.357.089.115-.169.472-.178.421-.326.97.109.204-.277.255-.495 1.263.02.115-.119.128-.148.548-.545 1.276-.158.383.9.587.456-1.276-.04-.345.277-.357.188-.612.396-1.187.119-.357.197-.51.287-.664.446-1.059-.02-.74-1.069-1.556-.494-.868-.317.013-.406-.013-.554 1.059-.237.472-.01.217-.277.191-.436.842.03.791.178.205.119.165.495.55.405.522.258.115zM145.067 137.56l-.317-.307-.267-.293-.02-.102-.395-.498.099-.217.118-.306.238-.306.445-.83.09.116.504.778.128-.026-.03.205.248.357.09.115-.17.472-.177.42-.327.97.11.205-.278.255-.495 1.263.02.115-.119.127-.148.549-.544 1.276-.159.382.9.587.456-1.276-.04-.344.277-.357.188-.613.396-1.186.119-.357.198-.51.287-.664.445-1.06-.02-.74-1.068-1.556-.495-.867-.317.013-.405-.013-.554 1.059-.238.472-.01.217-.277.191-.435.842.03.791.178.204.118.166.495.549.406.523.257.115zM147.817 137.215l.426.574.168-.102-.01.23.604 1.02h.02l.197.332-.326.613v-.013l-.723 1.008-.168.127-.148.166-.198.23-.406.612.673.931.376-.331.505-1.021.86-1.225.535-.727.05-.893-.377-.408-.346-.562-.604-.765-.099-.28.1-.205.078-.319 1.168-1.875-.07-.92-1.256-.037-.653-.026-.099.204-.099-.178-.168-.013-.475-.09-.099.651.06.587.435.013.811-.102.386.013h.08l-.14.179-.336.625-.089.23.04.203-.149.026-.534.79z"/></g><path style="fill:#000;fill-rule:evenodd;stroke:#fff;stroke-width:0;stroke-miterlimit:4;stroke-dasharray:none" d="m104.112 29.784-50.65 88.681.561 2.019-2.038.555L9.31 195.754l56.3-.034 3.278-2.48 1.907 2.48 128.084-.072-18.118-31.709-1.42-.117.167-2.066-54.56-95.493-1.764-.083.132-2.786zm.013 7 23.03 40.316 1.871.365-.429 2.149 63.738 111.548-21.313.012-1.991 1.428-1.049-1.428-152.104.083 4.005-7.012-.465-1.688 1.693-.46 62.57-109.53.382-3.624 1.597.166z"/></svg>