<svg xmlns="http://www.w3.org/2000/svg" viewBox="0 0 32 32">
  <path style="fill:#000;fill-rule:evenodd;stroke:#000;stroke-width:0;stroke-miterlimit:4;stroke-dasharray:none" d="M16.064 15.275a4.364 4.167 0 0 0-3.968 2.439 4.364 4.167 0 0 0-.008.02l.035.063-.075.038a4.364 4.167 0 0 0 .338 3.828l.196.081-.053.117a4.364 4.167 0 0 0 1.728 1.372 4.364 4.167 0 0 0 4.746-.71l.032-.21.17.024a4.364 4.167 0 0 0 .832-1.166 4.364 4.167 0 0 0 .13-3.152l-.181-.076.078-.171a4.364 4.167 0 0 0-2.187-2.121 4.364 4.167 0 0 0-1.813-.376zm.001.333a4.015 3.834 0 0 1 1.668.345 4.015 3.834 0 0 1 .128.059l.164-.046.019.14a4.015 3.834 0 0 1 1.979 2.682l-.223.083-.46-.086-.235.207-.226-.035-.063.06h.081l.19.044.243-.173-.018.164.064.112.018-.112-.01-.155.398.069.268-.005a4.015 3.834 0 0 1-.33 2.07 4.015 3.834 0 0 1-1.478 1.622l-.08.177-.137-.057a4.015 3.834 0 0 1-1.232.431l.02-.172-.032-.13.027-.072-.018-.06-.023.06-.058-.052-.04-.146v.168l.071.064.018.164-.068.198a4.015 3.834 0 0 1-2.288-.296 4.015 3.834 0 0 1-2.332-3.235l.696-.153.175-.14.193.176.136.14.055-.04.05-.12-.095.086-.361-.355-.24.157-.625-.024a4.015 3.834 0 0 1 .359-1.57 4.015 3.834 0 0 1 .494-.772l.002-.048.037.001a4.015 3.834 0 0 1 2.438-1.363l.247.243.162.17-.044.19-.118.222-.199.402-.169.346.119.184-.018-.207.183-.356s.165-.284.22-.422c.053-.137.184 0 .184 0l-.027.36-.195.125.04.086.222.148-.16-.182.145-.125.032-.423-.08-.4-.155-.106s-.128-.101-.204-.283a4.015 3.834 0 0 1 .496-.034z"/>
  <path style="fill:#000;fill-rule:evenodd;stroke:#000;stroke-width:0;stroke-miterlimit:4;stroke-dasharray:none;stroke-opacity:1" d="M16.083 19.007a1.22 1.165 0 0 0-.739.242l-.008.103-.108-.007a1.22 1.165 0 0 0-.365.827 1.22 1.165 0 0 0 1.22 1.166 1.22 1.165 0 0 0 .13-.007l.03-.065.103.044a1.22 1.165 0 0 0 .957-1.138 1.22 1.165 0 0 0-.567-.984l-.194.08-.095-.207a1.22 1.165 0 0 0-.364-.054zm-.06.336.105.403a.488.49 0 0 0-.04-.002.488.49 0 0 0-.116.016zm.335.038-.055.414a.488.49 0 0 0-.148-.047zm-.66.04.252.344a.488.49 0 0 0-.14.069zm.957.111-.209.368a.488.49 0 0 0-.12-.093zm-1.232.075.372.237a.488.49 0 0 0-.108.113zm1.452.17-.335.27a.488.49 0 0 0-.078-.128zm-1.638.098.441.095a.488.49 0 0 0-.06.141zm1.312.195.438.009-.411.137a.488.49 0 0 0-.027-.146zm-.934.055a.488.49 0 0 0-.015.11.488.49 0 0 0 .005.043l-.438-.088zm.962.117.4.158-.425-.014a.488.49 0 0 0 .025-.144zm-.972.054a.488.49 0 0 0 .04.145l-.426.066zm.936.121.305.28-.379-.155a.488.49 0 0 0 .074-.125zm-.882.048a.488.49 0 0 0 .088.118l-.359.202zm.78.11.174.352-.285-.266a.488.49 0 0 0 .111-.087zm-.662.036a.488.49 0 0 0 .123.075l-.249.3zm.503.074.027.378-.162-.341a.488.49 0 0 0 .135-.037zm-.331.02a.488.49 0 0 0 .138.02l-.116.358z"/>
  <g aria-label="ILLUMI" style="font-weight:700;font-size:6.95595px;line-height:1.25;font-family:Norse;-inkscape-font-specification:'Norse, Bold';stroke-width:.0206692">
    <path d="m45.383 38.715.277.265.15.157.985.848.19.164.144.014.05.154.406.478.214-.238.1-.106.127-.296-.19-.173-.11-.076-.088-.057-1.46-1.258-.087.026-.07-.142-.14-.103-.224-.156-.255-.248-.677-.61-.11-.14-.361-.358-.316.325-.198.261.286.2.068-.024.058.124 1.068.892zM49.437 38.352l-.432.305-.112-.168-.293-.39.002-.009-.284-.388-.247-.345-.12-.029-.001-.14-.19-.284-.39-.66-.414-.66-.108-.212-.245-.38-.234-.037-.16.174-.3.2.46.605.112-.033-.01.148 1.27 1.88.597.981.148.11-.005.154.274.386.268-.162.224-.216h.075l.249-.166.077-.06.459-.264.013-.168-.22-.38-.098-.11-.264.193zM51.774 37.46l-.505.158-.055-.194-.159-.461.005-.009-.15-.456-.13-.405-.104-.064.041-.135-.092-.328-.168-.747-.192-.756-.037-.235-.116-.437-.211-.107-.206.116-.348.098.253.717.116.003-.055.138.63 2.179.265 1.118.108.15-.053.145.142.452.305-.072.279-.137.072.023.287-.08.092-.034.518-.11.065-.156-.092-.43-.06-.134-.311.102zM53.231 36.655l.062.083-.11.115-.052.324-.028.346.38.402.435.05.233-.096.553-.217.009.05.018.379.683-.044-.044-.55.04-.813.166-1.536-.014-.204-.062-.076.08-.11.017-.097.052-.38.093-.444-.062-.083.08-.034.059-.372-.008-.343-.318-.039-.346-.027-.063.49-.06.874-.057.575-.042.849-.109.877-.072.447-.592.185-.236.06-.055-.012-.07-.07.003-.104.033-.815.13-.812.037-.52.019-.257.016-.236.075-.258-.054-.16.005-.125.094-.242.043-.22.069-.615-.622-.076-.115.248-.07 1.118.013.218-.07.14-.055.49-.027.76zM59.31 34.957l.065-.703-.237-.105-.266-.139-.198.336-.03.062.005.11-.012.034-.099.053-.16.302-.161.3-.334.53.055.124-.157.042-1.038 1.608-.094.154-.073.118-.034.175-.212.172-.091.255.564.33.157-.254.523-.879.476-.867.104-.075.503-.818-.003-.01.004-.005.256-.39-.025.32-.017.12-.005.062-.03.366.157.104.239.09.214-.162.165-.095.036-.06.18-.068.112-.062-.11.234-.836 1.266-.144.287.028.1-.136.063-.39.634-.282.365-.14.266.088.176.507.279.194-.395.105-.197.158-.352.26-.355 1.126-1.937-.009-.12.155-.092.581-.851-.116-.17-.258-.231-.625.326-.014.13-.107-.026-.401.228-.196.092-.002-.01zM61.41 38.614l-.312.222-.181.118-1.017.812-.196.156-.04.139-.16.021-.545.31.194.255.085.118.267.179.206-.155.095-.094.072-.076 1.506-1.202-.01-.09.154-.042.127-.12.195-.19.29-.205.725-.552.158-.082.418-.29-.26-.37-.22-.242-.25.244.012.07-.133.035-1.074.884z" style="font-size:6.95595px" transform="matrix(.6395 0 0 .61057 -18.05 -8.147)"/>
  </g>
  <g style="font-size:6.95148px;line-height:1.25;stroke-width:.173787">
    <path d="m51.442 57.898.097-.2.619-1.392.031-.24.177-.238.807-1.51.219-.419-.236-.168-.366-.17-.242.501.02.118-.156.164-.26.538-.043-.438-.038-.049-.036-.326-.188-1.048-.56-.102-.158.326-.29.663-.147.368-.655 1.29-.004.152-.138.158-.467.87-.052.106-.008.066-.286.48.245.18.375.166.206-.395.024-.097.32-.647.06-.265.14-.21.703-1.421-.036-.118v-.015l.196-.183.164-.338.053.304.084.48.076.307.02.18.043.137.019.217-.309.654-.039.128-.034.022-.296.598-.282.597-.242.485.207.116.347.16.184-.173zM53.698 57.943l-.003.236.05.056-.07.053-.022.196-.13.87.098.09.087.023.54-.033v-.309l-.073-.134.055-.043.041-.441-.007-.67.024-.094.094-1.706-.065-.081.078-.11.05-1.085-.01-.074-.006-.059.067-.234-.1-.083-.56-.115-.176.407-.133.267-.117.257.049.12-.158.11-.434.85-.031.122-.077.13-.053.123-.347.794-.028.136-.093.055-.177.407-.393.775.198.209.407.147.19-.432.001-.2.08-.059.197-.459.148-.02.068-.01.479.008.158-.06.007.002.098.01zm-.223-1.701-.006-.116.076-.017.346-.786-.082.74-.004.127-.064.357-.052.762-.2-.001-.473.022.02-.046.192-.416-.008.005zM54.947 58.412l.065.08-.104.12-.038.325-.011.347.397.383.437.03.229-.106.542-.243.011.049.036.378.679-.076-.069-.546.001-.815.095-1.54-.024-.203-.065-.073.075-.115.012-.097.034-.38.073-.45-.066-.08.079-.037.04-.374-.024-.342-.318-.024-.348-.011-.04.492-.018.876-.03.576-.003.85-.067.88-.052.45-.582.213-.233.071-.056-.01-.073-.066-.001-.105-.006-.815.092-.816.013-.522.007-.257.005-.236.063-.261-.062-.157v-.125l.083-.246.032-.221.04-.618-.624-.047-.104.252-.017 1.12.023.217-.063.143-.033.493.009.759zM58.803 56.653l.084.571.04.08.02.052.106 1.094-.002.043-.303-.478-.108.028-.036-.212-.496-.614-.151-.183.07-.15.119-.324.209-.477.424-.808-.02-.096.213-.239.123-.29-.202-.141-.083-.045-.282-.116-.264.491.024.074-.305.49-.044.196-.416.87-.098.265-.027.053-.095.083.055.511.399.459.245.254.199.282.008.006.42.56.29.333.104.154.114.167.645-.157-.048-.309-.075-.088.056-.05-.196-1.713-.026-.038.017-.5-.11-.196z" style="font-weight:700;font-size:6.95148px;font-family:Norse;-inkscape-font-specification:'Norse, Bold'" transform="matrix(.63862 .04805 -.05161 .65134 -17.88 -14.442)"/>
    <path d="m60.251 58.16.151.41.126.069-.064.16.127.449.429-.099.266-.103-.075-.246-.118-.29-.156-.337v-.022l-.348-1.159.442-.388.006-.002.355-.213.032.12.05.086.325 1.02.134.073-.046.082.2.754.162.202.382-.127.24-.094-.134-.359-.1-.15-.294-.84-.406-1.176-.057-.127-.118-.29-.173-.632-.123-.171.037-.108-.076-.253.002.007-.086-.39-.09-.336-.38.112-.246.075-.035.224.12.253.21.589.22.594.033.187-.062.057-.106.1-.23.21-.036.092-.119-.005-.244.191-.01.011-.273-.62-.118-.444-.092-.036.037-.151-.1-.414-.132-.483-.591.116-.124.158.182.393.025.139.164.429.182.393.188.656.294.73z" style="font-weight:700;font-size:6.95148px;font-family:Norse;-inkscape-font-specification:'Norse, Bold'" transform="matrix(.63862 .04805 -.05161 .65134 -17.88 -14.442)"/>
    <path d="m62.263 53.067-.27.173a4.19 4.19 0 0 1-.259.135c-.049.027-.08.1-.116.12l-.143.015-.607.295.257.51.114.032.364-.217a.482.482 0 0 0 .087-.072l.014-.047.144-.056.174.23.19.402.195.266.655 1.258.443.875.089.031.12.434.259.468.35-.129.153-.124.123-.195-.288-.405-.631-1.145-.137-.075.003-.01-.147-.395-.265-.465-.057-.103c-.023-.043-.06-.094-.087-.143a3.444 3.444 0 0 1-.14-.24l-.237-.457-.098-.12-.104-.276.188-.105.19-.088.07-.016.274-.15-.14-.297-.177-.235z" style="font-weight:700;font-size:6.95148px;font-family:Norse;-inkscape-font-specification:'Norse, Bold'" transform="matrix(.63862 .04805 -.05161 .65134 -17.88 -14.442)"/>
    <path d="m66.893 56.028.07-.234-.32-.323-.18-.238-.096-.075-.29-.409-.11-.002-.07-.21-.131-.154-.031-.072-.132-.154-.193-.565-.283-.789-.11-.304-.052-.233-.023-.107-.099-.001.082-.154-.16-.513-.264.015-.145.053-.3.125.163.305.06.21.203.443.062.244.174.386.176.42v.045l-.216-.148-.13-.04-.018-.056-.2-.16-.272-.13-.44-.317-.147-.095-.073-.093-.343-.206-.145.186-.225.331.128.183.303.123.138-.04.106.2.292.177.223.124-.004-.006.641.369.379.24.263.218.175.242.582.683.11.028.04.182.174.296.236.319z" style="font-weight:700;font-size:6.95148px;font-family:Norse;-inkscape-font-specification:'Norse, Bold'" transform="matrix(.63862 .04805 -.05161 .65134 -17.88 -14.442)"/>
  </g>
  <path style="fill:#000;fill-rule:evenodd;stroke:#fff;stroke-width:0" d="m10.658 19.101-.457.264.012.51.14.073.07-.019.017.065.24.126.456-.264-.011-.51-.174-.09-.101.034-.04-.109zM21.507 19.076l-.12.053-.031.066-.06-.025-.272.12-.046.509.437.292.17-.077.077-.167.154.064.082-.037.046-.507z"/>
  <g aria-label="1993" style="font-weight:700;font-size:2.66667px;line-height:1.25;font-family:Norse;-inkscape-font-specification:'Norse, Bold'">
    <path d="m8.71 19.504.028.025-.027.023-.008.09.001.07c.002.058.007.11.008.168l-.02.414v.115h.106l.06-.016.007-.084-.003-.046-.028-.023.02-.019-.017-.52.015-.586.006-.19-.108-.06-.021.02-.065.084-.013.06-.026-.014-.075.082-.037.029-.036.042.047.102.04.069.098-.123.044-.034-.003.255zM9.28 19.563l-.052-.05-.044-.049-.003-.016-.065-.082.016-.035.02-.05.039-.05.073-.137.014.02.083.127.021-.004-.005.033.04.059.015.018-.027.078-.03.069-.053.159.018.033-.046.042-.08.207.003.019-.02.02-.024.09-.09.21-.025.062.147.096.075-.209-.007-.056.046-.059.03-.1.065-.194.02-.059.032-.084.047-.108.073-.174-.003-.121-.175-.255-.081-.142-.052.002-.066-.002-.091.173-.04.078v.035l-.046.032-.071.138.004.13.03.033.019.027.081.09.067.085.042.02zM22.824 19.562l-.052-.05-.044-.048-.003-.017-.065-.081.017-.036.019-.05.039-.05.073-.136.014.019.083.127.021-.004-.005.034.04.058.015.019-.027.077-.03.07-.053.158.018.034-.045.041-.081.207.003.02-.02.02-.024.09-.09.21-.025.062.147.096.075-.21-.006-.056.045-.058.03-.1.066-.195.02-.058.031-.084.047-.109.073-.173-.003-.121-.175-.255-.08-.143-.053.003-.066-.003-.091.174-.039.077-.002.036-.045.031-.071.138.005.13.029.033.02.027.08.09.067.086.042.019zM23.275 19.506l.07.094.027-.017-.002.038.1.167h.002l.033.054-.054.1v-.001l-.118.165-.028.02-.024.028-.032.038-.067.1.11.152.062-.054.083-.167.14-.2.088-.12.008-.146-.061-.067-.057-.092-.099-.126-.016-.046.016-.033.013-.052.192-.308-.012-.15-.206-.006-.107-.005-.016.034-.016-.03-.028-.001-.078-.015-.016.107.01.096.071.002.133-.017.063.002h.013l-.022.03-.055.102-.015.038.007.033-.025.004-.087.13z"/>
  </g>
  <path style="fill:#000;fill-rule:evenodd;stroke:#fff;stroke-width:0;stroke-miterlimit:4;stroke-dasharray:none" d="m16.114 1.904-8.299 14.53.092.33-.334.091L.58 29.097l9.224-.005.537-.407.313.407 20.986-.012-2.969-5.195-.232-.02.027-.338-8.94-15.647-.288-.013.021-.457zm.002 1.147 3.773 6.605.307.06-.07.352 10.443 18.277-3.492.002-.326.234-.172-.234-24.922.013.656-1.149-.076-.276.277-.076L12.766 8.913l.063-.594.261.028z"/>
</svg>
