<svg viewBox="0 0 210 297" xmlns="http://www.w3.org/2000/svg">
  <path style="fill:#000;fill-rule:evenodd;stroke:#000;stroke-width:0;stroke-miterlimit:4;stroke-dasharray:none" d="m104.105 64.895-29.22 51.16.323 1.165-1.175.32-24.62 43.103 32.48-.02 1.89-1.43 1.101 1.43 73.891-.041-10.452-18.293-.82-.068.097-1.192-31.475-55.089-1.018-.048.076-1.607zm.007 4.039 13.286 23.258 1.079.21-.248 1.24L155 157.994l-12.295.007-1.148.824-.606-.824-87.748.048 2.31-4.046-.268-.974.977-.265 36.097-63.187.22-2.09.921.095zm.477 31.03-.26.533-.157 2.404.03.469-.158.3-.124 1.054-.06 1.634-.19 1.95.14.178-.248.247-.117.697-.063.744.855.864.98.107.525-.206 1.245-.466.02.107.04.815 1.538-.095-.099-1.182.09-1.748.374-3.302-.031-.439-.14-.163.18-.236.038-.21.118-.816.209-.954-.14-.179.18-.073.133-.8-.018-.737-.716-.084-.779-.058-.142 1.053-.135 1.88-.128 1.236-.095 1.825-.245 1.885-.162.961-1.333.398-.532.129-.124-.026-.157-.15.007-.224.074-1.752.293-1.746.084-1.118.042-.552.036-.507.17-.555-.122-.344.01-.269.212-.52.097-.473.155-1.322zm-8.417 1.097-.464.25-.783.21.57 1.541.26.007-.123.297 1.418 4.684.597 2.404.243.322-.12.312.32.972.687-.155.628-.295.163.05.646-.172.207-.074 1.166-.236.147-.335-.207-.924-.135-.289-.7.22-.302.189-1.138.34-.124-.418-.358-.99.012-.02-.338-.98-.293-.87-.234-.139.092-.29-.207-.705-.378-1.606-.432-1.625-.084-.505-.26-.94zm20.2 1.56-.446.723-.068.133.011.237-.027.073-.222.114-.36.649-.363.645-.753 1.14.124.266-.353.09-2.337 3.457-.212.331-.164.254-.077.376-.477.37-.205.548 1.27.71.353-.547 1.178-1.89 1.072-1.863.234-.162 1.132-1.758-.007-.022.01-.01.576-.839-.057.688-.038.258-.011.133-.067.787.353.224.538.193.482-.348.371-.204.081-.13.406-.145.252-.134-.248.503-1.882 2.722-.324.617.063.215-.307.135-.878 1.363-.634.785-.316.572.198.378 1.142.6.437-.85.236-.423.356-.757.585-.763 2.536-4.164-.02-.258.348-.197 1.309-1.83-.262-.365-.58-.497-1.408.7-.031.28-.241-.056-.903.49-.441.199-.005-.022.056-1.688.146-1.51-.533-.227zm-28.153 2.032-.36.374-.675.43 1.035 1.3.253-.07-.023.318 2.86 4.041 1.344 2.11.333.236-.011.331.617.83.603-.349.505-.464h.168l.561-.357.173-.129 1.034-.567.03-.361-.496-.817-.22-.237-.595.415-.228.269-.972.656-.253-.361-.66-.839.005-.02-.64-.834-.555-.741-.27-.063-.003-.3-.428-.611-.878-1.419-.932-1.419-.243-.455-.552-.817zm-4.762 4.095-.711.699-.446.561.644.43.153-.051.13.266 2.405 1.918.367.165.624.57.338.337 2.217 1.823.428.353.325.03.112.331.914 1.028.482-.512.225-.228.286-.636-.427-.372-.248-.163-.198-.123-3.288-2.704-.196.056-.157-.306-.315-.221-.505-.336-.574-.533-1.524-1.311-.248-.301zm42.121.805-.563.524.027.15-.3.076-2.417 1.9-.239.316-.702.477-.408.254-2.29 1.746-.441.335-.09.299-.36.045-1.228.666.437.548.191.254.602.385.464-.333.213-.202.163-.164 3.39-2.584-.022-.193.347-.09.286-.258.439-.409.653-.44 1.632-1.187.356-.177.941-.623-.585-.795zm-21.65 2.423a15.366 14.67 0 0 0-13.971 8.586 15.366 14.67 0 0 0-.028.071l.124.22-.262.137a15.366 14.67 0 0 0 1.187 13.476l.69.287-.186.41a15.366 14.67 0 0 0 6.086 4.833 15.366 14.67 0 0 0 16.712-2.498l.11-.743.6.084a15.366 14.67 0 0 0 2.93-4.105 15.366 14.67 0 0 0 .457-11.096l-.639-.269.278-.602a15.366 14.67 0 0 0-7.703-7.468 15.366 14.67 0 0 0-6.384-1.323zm.004 1.17a14.137 13.498 0 0 1 5.873 1.218 14.137 13.498 0 0 1 .452.205l.575-.16.069.49a14.137 13.498 0 0 1 6.967 9.446l-.786.291-1.62-.302-.825.727-.795-.121-.222.212h.286l.667.152.857-.606-.063.575.222.395.064-.395-.032-.546 1.397.243.945-.015a14.137 13.498 0 0 1-1.16 7.29 14.137 13.498 0 0 1-5.204 5.708l-.286.622-.48-.2a14.137 13.498 0 0 1-4.336 1.52l.068-.607-.112-.455.096-.258-.063-.212-.081.212-.206-.182-.143-.515v.591l.254.227.064.577-.242.697a14.137 13.498 0 0 1-8.056-1.042 14.137 13.498 0 0 1-8.21-11.391l2.45-.538.619-.49.68.618.475.49.195-.137.175-.424-.334.303-1.27-1.251-.846.554-2.2-.085a14.137 13.498 0 0 1 1.263-5.526 14.137 13.498 0 0 1 1.739-2.722l.008-.167.13.004a14.137 13.498 0 0 1 8.584-4.798l.87.853.57.599-.154.67-.417.781-.699 1.414-.595 1.22.417.649-.063-.731.646-1.252s.58-1.002.77-1.485c.19-.484.652 0 .652 0l-.096 1.265-.687.44.143.303.778.524-.56-.64.508-.445.112-1.485-.281-1.41-.544-.372s-.45-.358-.72-.997a14.137 13.498 0 0 1 1.748-.12zm25.117 11.451-.057.376.034.338.251.007.468-.058.223.007h.046l-.081.103-.194.36-.051.133.023.117-.086.015-.308.456v.42l.246.331.097-.059-.006.133.348.589h.012l.113.19-.188.354v-.007l-.417.582-.097.073-.085.096-.114.133-.235.353.389.537.217-.191.29-.59.497-.706.309-.42.028-.514-.217-.236-.2-.324-.348-.441-.057-.162.057-.118.045-.184.674-1.082-.04-.53-.724-.022-.377-.015-.057.118-.057-.103-.097-.007zm-50.873.017-.074.073-.229.294-.046.214-.09-.052-.263.288-.131.102-.126.148.165.36.137.243.349-.434.154-.118-.012.898.023.236.103.088-.097.081-.029.317.006.242c.006.207.023.39.029.597l-.075 1.457v.405h.377l.211-.06.023-.293-.011-.163-.097-.08.068-.067-.057-1.832.052-2.061.023-.67zm49.303.02-.32.612-.137.272-.006.125-.16.11-.25.486.017.456.103.118.068.096.285.316.235.302.148.067.268-.523-.183-.177-.154-.17-.011-.058-.228-.287.057-.125.068-.177.137-.177.257-.479.052.068.29.448.074-.015-.017.119.143.206.052.066-.098.272-.102.242-.189.56.064.118-.16.147-.286.73.011.065-.068.074-.086.316-.314.736-.091.221.519.339.263-.737-.023-.198.16-.206.108-.353.229-.685.068-.206.115-.294.165-.383.257-.611-.012-.427-.616-.898-.285-.5-.183.007zm-47.688.002-.32.61-.136.273-.006.125-.16.11-.251.486.017.456.102.119.069.095.286.317.233.301.15.067.267-.523-.182-.177-.154-.17-.012-.058-.228-.287.057-.125.068-.177.137-.177.257-.478.052.067.29.448.075-.014-.017.118.143.205.051.067-.097.272-.103.243-.188.56.062.117-.16.147-.285.729.012.066-.069.074-.085.316-.315.736-.09.221.518.339.263-.736-.023-.2.16-.205.109-.353.228-.685.069-.206.113-.294.166-.383.257-.611-.011-.427-.617-.898-.285-.5-.183.007zm24.204.478a4.298 4.103 0 0 0-2.6.853l-.028.364-.38-.027a4.298 4.103 0 0 0-1.287 2.912 4.298 4.103 0 0 0 4.295 4.105 4.298 4.103 0 0 0 .46-.023l.104-.227.362.151a4.298 4.103 0 0 0 3.37-4.006 4.298 4.103 0 0 0-1.996-3.465l-.683.285-.334-.732a4.298 4.103 0 0 0-1.282-.19zm19.097.243-.424.189-.108.231-.21-.087-.958.424-.163 1.79 1.54 1.026.6-.269.27-.587.54.224.29-.13.163-1.785zm-38.197.09-1.609.93.04 1.792.493.258.246-.064.064.228.842.443 1.608-.929-.04-1.792-.612-.323-.357.121-.143-.382zm18.89.85.369 1.42a1.719 1.726 0 0 0-.139-.006 1.719 1.726 0 0 0-.41.057zm1.179.136-.195 1.456a1.719 1.726 0 0 0-.52-.163zm-2.326.14.889 1.21a1.719 1.726 0 0 0-.492.242zm3.37.391-.735 1.296a1.719 1.726 0 0 0-.424-.33zm-4.336.265 1.31.834a1.719 1.726 0 0 0-.38.398zm5.11.595-1.18.956a1.719 1.726 0 0 0-.272-.455zm-5.764.35 1.552.332a1.719 1.726 0 0 0-.214.497zm4.617.686 1.545.03-1.45.481a1.719 1.726 0 0 0-.095-.511zm-3.287.193a1.719 1.726 0 0 0-.052.386 1.719 1.726 0 0 0 .016.152l-1.54-.312zm3.386.41 1.41.556-1.497-.049a1.719 1.726 0 0 0 .088-.507zm-3.422.192a1.719 1.726 0 0 0 .143.508l-1.5.235zm3.295.425 1.076.986-1.334-.547a1.719 1.726 0 0 0 .258-.44zm-3.104.17a1.719 1.726 0 0 0 .309.414l-1.262.712zm2.747.384.611 1.243-1.004-.936a1.719 1.726 0 0 0 .393-.307zm-2.33.128a1.719 1.726 0 0 0 .432.266l-.877 1.057zm1.77.261v.001l.096 1.33-.571-1.201a1.719 1.726 0 0 0 .476-.13zm-1.167.069a1.719 1.726 0 0 0 .488.072l-.409 1.262zm16.563 5.284-.336.097-.697.236.31.727.097.492.376 1.05.095.57.321.915.32.993-.008.103-.46-.376-.284-.114-.03-.131-.421-.4-.588-.345-.932-.802-.313-.242-.147-.226-.734-.53-.36.402-.173.22-.05-.08-1.303.642-.638.351a9.446 9.641 10.03 0 1-.607.266c-.115.054-.198.216-.283.256l-.324.01-1.277.517-.128.028-.566.13-.12.508.224.6.365 1.387.387 1.4.04.433-.15.12-.256.212-.555.443-.098.205-.267-.032-.583.397-.025.024-.5-1.469-.186-1.038-.2-.098.11-.34-.149-.966-.209-1.13-1.35.166-.307.341.089.246-.276-.23-.178-.117-.614-.314-.682 1.081.04.174-.775 1.072-.134.442-1.094 1.925-.268.591-.07.117-.23.175.031 1.18.814 1.12.505.625.396.68.017.015.843 1.356.591.812.206.371.226.403 1.479-.251-.052-.717-.153-.215.135-.105-.13-3.961-.05-.092.128-1.144-.211-.468-1.362.147.085 1.323.075.19.036.123.04 2.527-.013.098-.594-1.147-.248.046-.043-.492-1.003-1.492-.307-.446.185-.332.327-.723.556-1.058 1.1-1.781-.027-.224.522-.512.267-.522.159.436.03.323.291 1.012.338.932.303 1.536.529 1.724.374 2.16.265.966.27.179-.172.356.204 1.051.982-.154.617-.191-.124-.577-.212-.685-.29-.8.004-.05-.572-2.717 1.064-.815.014-.004.837-.428.05.28.097.206.546 2.394.287.19-.118.18.313 1.764.328.49.882-.226.556-.175-.236-.846-.198-.361-.508-1.976-.699-2.766-.105-.3-.213-.686-.274-1.478-.245-.413.103-.242-.122-.576v-.002l-.048-.353.49-.249a1.087 1.11 10.03 0 0 .208-.15l.04-.106.334-.104.35.557.353.954.39.643 1.245 2.996.837 2.082.194.086.191 1.016.498 1.117.81-.237.367-.258.312-.427-.574-.977-1.211-2.733-.295-.195.01-.022-.26-.931-.51-1.112-.11-.245c-.044-.103-.118-.226-.17-.343a7.764 7.924 10.03 0 1-.271-.574l-.45-1.088-.198-.292-.184-.65.442-.21.443-.17.16-.024.536-.248.063.032.317-.068.202.477.625.455.478.322-.008-.015 1.375.955.808.615.552.544.35.585 1.184 1.664.242.083.057.425.338.708.472.771 1.007-.66.2-.525-.66-.795-.362-.576-.202-.188-.578-.987-.247-.023-.12-.494-.266-.375-.057-.17-.269-.376-.33-1.328-.494-1.858-.192-.715-.074-.544-.033-.249-.222-.019.212-.34-.266-1.203zm-29.97 1.005-.414.72-.773 1.472-.397.82-1.707 2.847-.037.348-.339.339-1.208 1.916-.136.234-.03.15-.73 1.053.517.454.814.444.535-.871.071-.218.837-1.43.183-.598.353-.458 1.84-3.14-.06-.276.002-.035.474-.386.43-.747.065.706.101 1.115.115.717.013.416.071.321.004.501-.814 1.448-.111.287-.08.044-.775 1.322-.742 1.32-.632 1.072.444.301.751.426.445-.366.364-.824.255-.442 1.644-3.087.114-.546.441-.515 2.089-3.327.568-.924-.5-.425-.792-.452-.635 1.108.024.274-.381.35-.682 1.19-.017-1.012-.077-.119-.022-.753-.232-2.436zm5.5 3.36-.47.903-.348.59-.31.57.09.283-.376.226-1.13 1.876-.092.274-.197.285-.142.273-.924 1.762-.088.308-.219.11-.472.903-1.025 1.711.408.513.888.406.506-.958.039-.459.19-.122.527-1.019.336-.02.155-.012 1.075.1.366-.112.016.006.218.04-.012.132-.05.541.102.137-.167.11-.085.445-.45 1.974.204.223.191.067 1.22.016.057-.709-.14-.32.131-.089.173-1.004.106-1.538.07-.211.522-3.897-.131-.197.195-.239.31-2.48-.01-.17-.002-.137.193-.525-.21-.208zm2.948.964-.28.56-.242 2.566.013.502-.168.317-.164 1.125-.117 1.742-.258 2.08.131.195-.255.257-.145.74-.088.793.824.946.977.142.534-.204 1.263-.465.016.114.012.873 1.54-.06-.056-1.263.15-1.87.494-3.515-.017-.47-.133-.178.19-.251.044-.22.146-.866.246-1.02-.134-.194.184-.072.158-.85.008-.79-.71-.108-.78-.084-.18 1.121-.2 2.006-.172 1.316-.161 1.949-.311 2.007-.199 1.023-1.347.39-.537.123-.124-.032-.152-.164.017-.241.134-1.87.355-1.856.125-1.195.062-.588.054-.54.19-.588-.112-.37.023-.287.231-.55.113-.502.202-1.41zm-3.03 1.63-.318 1.683-.032.29-.21.808-.254 1.739-.45-.036-1.067-.03.053-.102.507-.921-.019.01.688-1.404.008-.267.174-.026z"/>
</svg>
