<?xml version="1.0" encoding="UTF-8" standalone="no"?>
<svg
   viewBox="0 0 32 32"
   version="1.1"
   id="svg28"
   sodipodi:docname="illuminaughty-blk.svg"
   inkscape:version="1.1.1 (3bf5ae0d25, 2021-09-20)"
   xmlns:inkscape="http://www.inkscape.org/namespaces/inkscape"
   xmlns:sodipodi="http://sodipodi.sourceforge.net/DTD/sodipodi-0.dtd"
   xmlns="http://www.w3.org/2000/svg"
   xmlns:svg="http://www.w3.org/2000/svg">
  <defs
     id="defs32" />
  <sodipodi:namedview
     id="namedview30"
     pagecolor="#ffffff"
     bordercolor="#666666"
     borderopacity="1.0"
     inkscape:pageshadow="2"
     inkscape:pageopacity="0.0"
     inkscape:pagecheckerboard="0"
     showgrid="false"
     inkscape:zoom="22.46875"
     inkscape:cx="15.977747"
     inkscape:cy="19.560501"
     inkscape:window-width="1852"
     inkscape:window-height="1057"
     inkscape:window-x="60"
     inkscape:window-y="-8"
     inkscape:window-maximized="1"
     inkscape:current-layer="svg28" />
  <path
     style="fill:#000;fill-rule:evenodd;stroke:#000;stroke-width:0;stroke-miterlimit:4;stroke-dasharray:none"
     d="M16.064 15.275a4.364 4.167 0 0 0-3.968 2.439 4.364 4.167 0 0 0-.008.02l.035.063-.075.038a4.364 4.167 0 0 0 .338 3.828l.196.081-.053.117a4.364 4.167 0 0 0 1.728 1.372 4.364 4.167 0 0 0 4.746-.71l.032-.21.17.024a4.364 4.167 0 0 0 .832-1.166 4.364 4.167 0 0 0 .13-3.152l-.181-.076.078-.171a4.364 4.167 0 0 0-2.187-2.121 4.364 4.167 0 0 0-1.813-.376zm.001.333a4.015 3.834 0 0 1 1.668.345 4.015 3.834 0 0 1 .128.059l.164-.046.019.14a4.015 3.834 0 0 1 1.979 2.682l-.223.083-.46-.086-.235.207-.226-.035-.063.06h.081l.19.044.243-.173-.018.164.064.112.018-.112-.01-.155.398.069.268-.005a4.015 3.834 0 0 1-.33 2.07 4.015 3.834 0 0 1-1.478 1.622l-.08.177-.137-.057a4.015 3.834 0 0 1-1.232.431l.02-.172-.032-.13.027-.072-.018-.06-.023.06-.058-.052-.04-.146v.168l.071.064.018.164-.068.198a4.015 3.834 0 0 1-2.288-.296 4.015 3.834 0 0 1-2.332-3.235l.696-.153.175-.14.193.176.136.14.055-.04.05-.12-.095.086-.361-.355-.24.157-.625-.024a4.015 3.834 0 0 1 .359-1.57 4.015 3.834 0 0 1 .494-.772l.002-.048.037.001a4.015 3.834 0 0 1 2.438-1.363l.247.243.162.17-.044.19-.118.222-.199.402-.169.346.119.184-.018-.207.183-.356s.165-.284.22-.422c.053-.137.184 0 .184 0l-.027.36-.195.125.04.086.222.148-.16-.182.145-.125.032-.423-.08-.4-.155-.106s-.128-.101-.204-.283a4.015 3.834 0 0 1 .496-.034z"
     id="path2" />
  <path
     style="fill:#000000;fill-rule:evenodd;stroke:#000000;stroke-width:0;stroke-miterlimit:4;stroke-dasharray:none;stroke-opacity:1"
     d="m 16.183112,19.429782 a 1.22,1.165 0 0 0 -0.739,0.242 l -0.008,0.103 -0.108,-0.007 a 1.22,1.165 0 0 0 -0.365,0.827 1.22,1.165 0 0 0 1.22,1.166 1.22,1.165 0 0 0 0.13,-0.007 l 0.03,-0.065 0.103,0.044 a 1.22,1.165 0 0 0 0.957,-1.138 1.22,1.165 0 0 0 -0.567,-0.984 l -0.194,0.08 -0.095,-0.207 a 1.22,1.165 0 0 0 -0.364,-0.054 z m -0.06,0.336 0.105,0.403 a 0.488,0.49 0 0 0 -0.04,-0.002 0.488,0.49 0 0 0 -0.116,0.016 z m 0.335,0.038 -0.055,0.414 a 0.488,0.49 0 0 0 -0.148,-0.047 z m -0.66,0.04 0.252,0.344 a 0.488,0.49 0 0 0 -0.14,0.069 z m 0.957,0.111 -0.209,0.368 a 0.488,0.49 0 0 0 -0.12,-0.093 z m -1.232,0.075 0.372,0.237 a 0.488,0.49 0 0 0 -0.108,0.113 z m 1.452,0.17 -0.335,0.27 a 0.488,0.49 0 0 0 -0.078,-0.128 z m -1.638,0.098 0.441,0.095 a 0.488,0.49 0 0 0 -0.06,0.141 z m 1.312,0.195 0.438,0.009 -0.411,0.137 a 0.488,0.49 0 0 0 -0.027,-0.146 z m -0.934,0.055 a 0.488,0.49 0 0 0 -0.015,0.11 0.488,0.49 0 0 0 0.005,0.043 l -0.438,-0.088 z m 0.962,0.117 0.4,0.158 -0.425,-0.014 a 0.488,0.49 0 0 0 0.025,-0.144 z m -0.972,0.054 a 0.488,0.49 0 0 0 0.04,0.145 l -0.426,0.066 z m 0.936,0.121 0.305,0.28 -0.379,-0.155 a 0.488,0.49 0 0 0 0.074,-0.125 z m -0.882,0.048 a 0.488,0.49 0 0 0 0.088,0.118 l -0.359,0.202 z m 0.78,0.11 0.174,0.352 -0.285,-0.266 a 0.488,0.49 0 0 0 0.111,-0.087 z m -0.662,0.036 a 0.488,0.49 0 0 0 0.123,0.075 l -0.249,0.3 z m 0.503,0.074 0.027,0.378 -0.162,-0.341 a 0.488,0.49 0 0 0 0.135,-0.037 z m -0.331,0.02 a 0.488,0.49 0 0 0 0.138,0.02 l -0.116,0.358 z"
     id="path4" />
  <g
     aria-label="ILLUMI"
     style="font-weight:700;font-size:6.95595px;line-height:1.25;font-family:Norse;-inkscape-font-specification:'Norse, Bold';stroke-width:.0206692"
     id="g8">
    <path
       id="path6"
       style="font-size:6.95595px;stroke-width:0.0129155"
       d="M 16.113281 1.9042969 L 7.8144531 16.433594 L 7.90625 16.763672 L 7.5722656 16.855469 L 0.58007812 29.097656 L 9.8046875 29.091797 L 10.341797 28.685547 L 10.654297 29.091797 L 31.640625 29.080078 L 28.671875 23.884766 L 28.439453 23.865234 L 28.466797 23.527344 L 19.525391 7.8808594 L 19.238281 7.8671875 L 19.259766 7.4101562 L 16.113281 1.9042969 z M 16.115234 3.0507812 L 19.888672 9.65625 L 20.195312 9.7167969 L 20.126953 10.068359 L 30.568359 28.345703 L 27.076172 28.347656 L 26.751953 28.580078 L 26.578125 28.347656 L 1.65625 28.359375 L 2.3125 27.210938 L 2.2363281 26.935547 L 2.5136719 26.859375 L 12.765625 8.9121094 L 12.828125 8.3183594 L 13.089844 8.3476562 L 16.115234 3.0507812 z M 16.251953 11.863281 L 16.177734 12.015625 L 16.134766 12.697266 L 16.142578 12.830078 L 16.097656 12.916016 L 16.0625 13.214844 L 16.044922 13.679688 L 15.992188 14.234375 L 16.03125 14.283203 L 15.960938 14.353516 L 15.927734 14.552734 L 15.910156 14.763672 L 16.152344 15.009766 L 16.429688 15.039062 L 16.580078 14.980469 L 16.933594 14.847656 L 16.939453 14.878906 L 16.951172 15.109375 L 17.386719 15.083984 L 17.359375 14.748047 L 17.384766 14.251953 L 17.490234 13.3125 L 17.482422 13.189453 L 17.441406 13.142578 L 17.494141 13.074219 L 17.503906 13.015625 L 17.537109 12.783203 L 17.597656 12.513672 L 17.556641 12.462891 L 17.609375 12.441406 L 17.646484 12.214844 L 17.640625 12.003906 L 17.4375 11.980469 L 17.216797 11.964844 L 17.175781 12.263672 L 17.138672 12.796875 L 17.101562 13.148438 L 17.074219 13.666016 L 17.003906 14.203125 L 16.958984 14.474609 L 16.580078 14.587891 L 16.429688 14.625 L 16.394531 14.617188 L 16.349609 14.574219 L 16.351562 14.511719 L 16.373047 14.013672 L 16.455078 13.517578 L 16.478516 13.201172 L 16.492188 13.042969 L 16.501953 12.898438 L 16.548828 12.742188 L 16.515625 12.644531 L 16.517578 12.568359 L 16.578125 12.419922 L 16.605469 12.285156 L 16.650391 11.910156 L 16.251953 11.863281 z M 13.861328 12.175781 L 13.730469 12.246094 L 13.507812 12.306641 L 13.669922 12.744141 L 13.744141 12.746094 L 13.708984 12.830078 L 14.111328 14.160156 L 14.28125 14.84375 L 14.349609 14.933594 L 14.316406 15.023438 L 14.40625 15.298828 L 14.601562 15.255859 L 14.779297 15.171875 L 14.826172 15.185547 L 15.009766 15.136719 L 15.068359 15.115234 L 15.400391 15.048828 L 15.441406 14.953125 L 15.382812 14.691406 L 15.34375 14.609375 L 15.144531 14.671875 L 15.058594 14.724609 L 14.736328 14.822266 L 14.701172 14.703125 L 14.599609 14.421875 L 14.603516 14.416016 L 14.507812 14.136719 L 14.423828 13.890625 L 14.357422 13.851562 L 14.382812 13.769531 L 14.324219 13.568359 L 14.216797 13.113281 L 14.09375 12.650391 L 14.070312 12.507812 L 13.996094 12.240234 L 13.861328 12.175781 z M 19.599609 12.619141 L 19.472656 12.824219 L 19.453125 12.861328 L 19.455078 12.927734 L 19.449219 12.949219 L 19.384766 12.982422 L 19.283203 13.166016 L 19.179688 13.349609 L 18.966797 13.673828 L 19.001953 13.748047 L 18.900391 13.773438 L 18.236328 14.755859 L 18.177734 14.849609 L 18.130859 14.921875 L 18.109375 15.029297 L 17.972656 15.134766 L 17.914062 15.289062 L 18.275391 15.492188 L 18.375 15.335938 L 18.710938 14.798828 L 19.015625 14.269531 L 19.082031 14.224609 L 19.402344 13.724609 L 19.400391 13.71875 L 19.404297 13.714844 L 19.566406 13.478516 L 19.550781 13.673828 L 19.541016 13.746094 L 19.537109 13.783203 L 19.517578 14.007812 L 19.619141 14.070312 L 19.771484 14.126953 L 19.908203 14.027344 L 20.013672 13.96875 L 20.037109 13.931641 L 20.152344 13.890625 L 20.222656 13.853516 L 20.152344 13.996094 L 19.619141 14.769531 L 19.527344 14.943359 L 19.544922 15.005859 L 19.457031 15.042969 L 19.207031 15.431641 L 19.027344 15.654297 L 18.9375 15.816406 L 18.994141 15.923828 L 19.318359 16.09375 L 19.443359 15.853516 L 19.509766 15.732422 L 19.611328 15.517578 L 19.777344 15.300781 L 20.498047 14.117188 L 20.492188 14.044922 L 20.589844 13.988281 L 20.962891 13.46875 L 20.888672 13.365234 L 20.722656 13.224609 L 20.322266 13.423828 L 20.314453 13.501953 L 20.246094 13.486328 L 19.990234 13.625 L 19.863281 13.681641 L 19.863281 13.675781 L 19.878906 13.197266 L 19.919922 12.767578 L 19.769531 12.703125 L 19.599609 12.619141 z M 11.603516 13.195312 L 11.5 13.300781 L 11.308594 13.423828 L 11.603516 13.792969 L 11.673828 13.773438 L 11.667969 13.863281 L 12.480469 15.011719 L 12.861328 15.609375 L 12.957031 15.677734 L 12.953125 15.771484 L 13.128906 16.007812 L 13.300781 15.908203 L 13.443359 15.775391 L 13.492188 15.775391 L 13.650391 15.675781 L 13.699219 15.638672 L 13.994141 15.476562 L 14.001953 15.375 L 13.861328 15.142578 L 13.798828 15.076172 L 13.628906 15.193359 L 13.564453 15.269531 L 13.289062 15.455078 L 13.216797 15.353516 L 13.029297 15.115234 L 13.03125 15.109375 L 12.849609 14.873047 L 12.691406 14.662109 L 12.615234 14.644531 L 12.613281 14.558594 L 12.492188 14.384766 L 12.242188 13.982422 L 11.978516 13.580078 L 11.910156 13.449219 L 11.751953 13.21875 L 11.603516 13.195312 z M 10.25 14.359375 L 10.048828 14.556641 L 9.921875 14.716797 L 10.105469 14.837891 L 10.148438 14.824219 L 10.185547 14.900391 L 10.869141 15.443359 L 10.972656 15.492188 L 11.150391 15.652344 L 11.246094 15.748047 L 11.875 16.267578 L 11.996094 16.367188 L 12.089844 16.375 L 12.121094 16.46875 L 12.380859 16.761719 L 12.517578 16.615234 L 12.582031 16.550781 L 12.662109 16.371094 L 12.541016 16.265625 L 12.470703 16.21875 L 12.414062 16.183594 L 11.480469 15.416016 L 11.425781 15.431641 L 11.380859 15.34375 L 11.291016 15.28125 L 11.148438 15.1875 L 10.984375 15.035156 L 10.550781 14.662109 L 10.480469 14.578125 L 10.25 14.359375 z M 22.212891 14.587891 L 22.052734 14.736328 L 22.060547 14.779297 L 21.976562 14.800781 L 21.289062 15.339844 L 21.222656 15.429688 L 21.021484 15.564453 L 20.90625 15.636719 L 20.255859 16.132812 L 20.130859 16.228516 L 20.105469 16.3125 L 20.001953 16.326172 L 19.654297 16.515625 L 19.779297 16.669922 L 19.832031 16.742188 L 20.003906 16.851562 L 20.134766 16.757812 L 20.195312 16.699219 L 20.242188 16.654297 L 21.205078 15.919922 L 21.199219 15.865234 L 21.296875 15.839844 L 21.378906 15.765625 L 21.503906 15.650391 L 21.689453 15.525391 L 22.152344 15.1875 L 22.253906 15.138672 L 22.521484 14.960938 L 22.353516 14.734375 L 22.212891 14.587891 z " />
  </g>
  <g
     style="font-size:6.95148px;line-height:1.25;stroke-width:.173787"
     id="g18">
    <path
       d="m51.442 57.898.097-.2.619-1.392.031-.24.177-.238.807-1.51.219-.419-.236-.168-.366-.17-.242.501.02.118-.156.164-.26.538-.043-.438-.038-.049-.036-.326-.188-1.048-.56-.102-.158.326-.29.663-.147.368-.655 1.29-.004.152-.138.158-.467.87-.052.106-.008.066-.286.48.245.18.375.166.206-.395.024-.097.32-.647.06-.265.14-.21.703-1.421-.036-.118v-.015l.196-.183.164-.338.053.304.084.48.076.307.02.18.043.137.019.217-.309.654-.039.128-.034.022-.296.598-.282.597-.242.485.207.116.347.16.184-.173zM53.698 57.943l-.003.236.05.056-.07.053-.022.196-.13.87.098.09.087.023.54-.033v-.309l-.073-.134.055-.043.041-.441-.007-.67.024-.094.094-1.706-.065-.081.078-.11.05-1.085-.01-.074-.006-.059.067-.234-.1-.083-.56-.115-.176.407-.133.267-.117.257.049.12-.158.11-.434.85-.031.122-.077.13-.053.123-.347.794-.028.136-.093.055-.177.407-.393.775.198.209.407.147.19-.432.001-.2.08-.059.197-.459.148-.02.068-.01.479.008.158-.06.007.002.098.01zm-.223-1.701-.006-.116.076-.017.346-.786-.082.74-.004.127-.064.357-.052.762-.2-.001-.473.022.02-.046.192-.416-.008.005zM54.947 58.412l.065.08-.104.12-.038.325-.011.347.397.383.437.03.229-.106.542-.243.011.049.036.378.679-.076-.069-.546.001-.815.095-1.54-.024-.203-.065-.073.075-.115.012-.097.034-.38.073-.45-.066-.08.079-.037.04-.374-.024-.342-.318-.024-.348-.011-.04.492-.018.876-.03.576-.003.85-.067.88-.052.45-.582.213-.233.071-.056-.01-.073-.066-.001-.105-.006-.815.092-.816.013-.522.007-.257.005-.236.063-.261-.062-.157v-.125l.083-.246.032-.221.04-.618-.624-.047-.104.252-.017 1.12.023.217-.063.143-.033.493.009.759zM58.803 56.653l.084.571.04.08.02.052.106 1.094-.002.043-.303-.478-.108.028-.036-.212-.496-.614-.151-.183.07-.15.119-.324.209-.477.424-.808-.02-.096.213-.239.123-.29-.202-.141-.083-.045-.282-.116-.264.491.024.074-.305.49-.044.196-.416.87-.098.265-.027.053-.095.083.055.511.399.459.245.254.199.282.008.006.42.56.29.333.104.154.114.167.645-.157-.048-.309-.075-.088.056-.05-.196-1.713-.026-.038.017-.5-.11-.196z"
       style="font-weight:700;font-size:6.95148px;font-family:Norse;-inkscape-font-specification:'Norse, Bold'"
       transform="matrix(.63862 .04805 -.05161 .65134 -17.88 -14.442)"
       id="path10" />
    <path
       d="m60.251 58.16.151.41.126.069-.064.16.127.449.429-.099.266-.103-.075-.246-.118-.29-.156-.337v-.022l-.348-1.159.442-.388.006-.002.355-.213.032.12.05.086.325 1.02.134.073-.046.082.2.754.162.202.382-.127.24-.094-.134-.359-.1-.15-.294-.84-.406-1.176-.057-.127-.118-.29-.173-.632-.123-.171.037-.108-.076-.253.002.007-.086-.39-.09-.336-.38.112-.246.075-.035.224.12.253.21.589.22.594.033.187-.062.057-.106.1-.23.21-.036.092-.119-.005-.244.191-.01.011-.273-.62-.118-.444-.092-.036.037-.151-.1-.414-.132-.483-.591.116-.124.158.182.393.025.139.164.429.182.393.188.656.294.73z"
       style="font-weight:700;font-size:6.95148px;font-family:Norse;-inkscape-font-specification:'Norse, Bold'"
       transform="matrix(.63862 .04805 -.05161 .65134 -17.88 -14.442)"
       id="path12" />
    <path
       d="m62.263 53.067-.27.173a4.19 4.19 0 0 1-.259.135c-.049.027-.08.1-.116.12l-.143.015-.607.295.257.51.114.032.364-.217a.482.482 0 0 0 .087-.072l.014-.047.144-.056.174.23.19.402.195.266.655 1.258.443.875.089.031.12.434.259.468.35-.129.153-.124.123-.195-.288-.405-.631-1.145-.137-.075.003-.01-.147-.395-.265-.465-.057-.103c-.023-.043-.06-.094-.087-.143a3.444 3.444 0 0 1-.14-.24l-.237-.457-.098-.12-.104-.276.188-.105.19-.088.07-.016.274-.15-.14-.297-.177-.235z"
       style="font-weight:700;font-size:6.95148px;font-family:Norse;-inkscape-font-specification:'Norse, Bold'"
       transform="matrix(.63862 .04805 -.05161 .65134 -17.88 -14.442)"
       id="path14" />
    <path
       d="m66.893 56.028.07-.234-.32-.323-.18-.238-.096-.075-.29-.409-.11-.002-.07-.21-.131-.154-.031-.072-.132-.154-.193-.565-.283-.789-.11-.304-.052-.233-.023-.107-.099-.001.082-.154-.16-.513-.264.015-.145.053-.3.125.163.305.06.21.203.443.062.244.174.386.176.42v.045l-.216-.148-.13-.04-.018-.056-.2-.16-.272-.13-.44-.317-.147-.095-.073-.093-.343-.206-.145.186-.225.331.128.183.303.123.138-.04.106.2.292.177.223.124-.004-.006.641.369.379.24.263.218.175.242.582.683.11.028.04.182.174.296.236.319z"
       style="font-weight:700;font-size:6.95148px;font-family:Norse;-inkscape-font-specification:'Norse, Bold'"
       transform="matrix(.63862 .04805 -.05161 .65134 -17.88 -14.442)"
       id="path16" />
  </g>
  <path
     style="fill:#000;fill-rule:evenodd;stroke:#fff;stroke-width:0"
     d="m10.658 19.101-.457.264.012.51.14.073.07-.019.017.065.24.126.456-.264-.011-.51-.174-.09-.101.034-.04-.109zM21.507 19.076l-.12.053-.031.066-.06-.025-.272.12-.046.509.437.292.17-.077.077-.167.154.064.082-.037.046-.507z"
     id="path20" />
  <g
     aria-label="1993"
     style="font-weight:700;font-size:2.66667px;line-height:1.25;font-family:Norse;-inkscape-font-specification:'Norse, Bold'"
     id="g24">
    <path
       d="m8.71 19.504.028.025-.027.023-.008.09.001.07c.002.058.007.11.008.168l-.02.414v.115h.106l.06-.016.007-.084-.003-.046-.028-.023.02-.019-.017-.52.015-.586.006-.19-.108-.06-.021.02-.065.084-.013.06-.026-.014-.075.082-.037.029-.036.042.047.102.04.069.098-.123.044-.034-.003.255zM9.28 19.563l-.052-.05-.044-.049-.003-.016-.065-.082.016-.035.02-.05.039-.05.073-.137.014.02.083.127.021-.004-.005.033.04.059.015.018-.027.078-.03.069-.053.159.018.033-.046.042-.08.207.003.019-.02.02-.024.09-.09.21-.025.062.147.096.075-.209-.007-.056.046-.059.03-.1.065-.194.02-.059.032-.084.047-.108.073-.174-.003-.121-.175-.255-.081-.142-.052.002-.066-.002-.091.173-.04.078v.035l-.046.032-.071.138.004.13.03.033.019.027.081.09.067.085.042.02zM22.824 19.562l-.052-.05-.044-.048-.003-.017-.065-.081.017-.036.019-.05.039-.05.073-.136.014.019.083.127.021-.004-.005.034.04.058.015.019-.027.077-.03.07-.053.158.018.034-.045.041-.081.207.003.02-.02.02-.024.09-.09.21-.025.062.147.096.075-.21-.006-.056.045-.058.03-.1.066-.195.02-.058.031-.084.047-.109.073-.173-.003-.121-.175-.255-.08-.143-.053.003-.066-.003-.091.174-.039.077-.002.036-.045.031-.071.138.005.13.029.033.02.027.08.09.067.086.042.019zM23.275 19.506l.07.094.027-.017-.002.038.1.167h.002l.033.054-.054.1v-.001l-.118.165-.028.02-.024.028-.032.038-.067.1.11.152.062-.054.083-.167.14-.2.088-.12.008-.146-.061-.067-.057-.092-.099-.126-.016-.046.016-.033.013-.052.192-.308-.012-.15-.206-.006-.107-.005-.016.034-.016-.03-.028-.001-.078-.015-.016.107.01.096.071.002.133-.017.063.002h.013l-.022.03-.055.102-.015.038.007.033-.025.004-.087.13z"
       id="path22" />
  </g>
</svg>
